<?xml version="1.0" encoding="utf-8"?>
<!-- Generator: Adobe Illustrator 16.0.0, SVG Export Plug-In . SVG Version: 6.00 Build 0)  -->
<!DOCTYPE svg PUBLIC "-//W3C//DTD SVG 1.1//EN" "http://www.w3.org/Graphics/SVG/1.1/DTD/svg11.dtd">
<svg version="1.1" id="Layer_1" xmlns="http://www.w3.org/2000/svg" xmlns:xlink="http://www.w3.org/1999/xlink" x="0px" y="0px"
	 width="340px" height="338px" viewBox="128.5 28.5 340 338" enable-background="new 128.5 28.5 340 338" xml:space="preserve">
<path fill="#454545" d="M299.393,33.014c-90.855,0-164.51,73.657-164.51,164.515c0,90.855,73.655,164.513,164.51,164.513
	c90.861,0,164.513-73.657,164.513-164.513C463.905,106.671,390.254,33.014,299.393,33.014z M401.174,247.837
	c-1.575,1.368-7.306,6.062-10.971,8.707c-6.228,4.502-12.305,8.274-18.2,11.317c-5.903,3.027-11.559,5.324-16.966,6.865
	c-5.405,1.534-10.381,2.306-14.916,2.306c-5.208,0-10.032-0.878-14.492-2.646c-4.453-1.767-8.321-4.337-11.576-7.711
	c-3.263-3.375-5.841-7.521-7.734-12.438c-1.904-4.918-2.854-10.53-2.854-16.832c0-2.172,0.249-4.918,0.747-8.217
	c0.497-3.293,1.214-7.049,2.164-11.252c0.953-4.205,2.11-8.799,3.47-13.789c0.954-3.494,2.533-9.055,3.937-13.883l-27.826,3.308
	c-7.1,17.921-45.309,111.411-48.887,114.487c-5.236,4.513-12.987,6.824-19.704,4.693c-1.912-0.604-3.594-1.459-5.083-2.586
	c-1.48-1.128-2.662-2.479-3.528-4.047c-0.867-1.575-1.298-3.342-1.298-5.299c0-1.194,0.167-2.363,0.498-3.482
	c3.458-11.484,23.974-59.312,28.058-70c3.823-10,8.769-20.232,12.843-29.803c-45.23,7.238-48.151-9.059-47.492-15.892
	c-0.013-0.261-0.076-0.501-0.076-0.767c0-8.019,6.501-14.52,14.518-14.52c6.665,0,12.223,4.52,13.926,10.643
	c9.615-0.348,19.211-1.604,28.661-3.386c0.166-0.664,0.28-1.228,0.344-1.377c2.969-6.979,5.801-13.714,8.483-20.208
	c2.682-6.488,5.174-12.848,7.492-19.079c1.397-3.976,2.517-7.952,3.342-11.932c0.821-3.976,1.236-7.77,1.236-11.368
	c0-2.927-0.294-5.63-0.867-8.106c-0.577-2.475-1.526-4.573-2.849-6.306c-1.322-1.72-3.014-3.072-5.075-4.05
	c-2.064-0.975-4.626-1.463-7.678-1.463c-2.476,0-5.345,0.381-8.607,1.127c-3.259,0.75-6.87,1.97-10.833,3.656
	c-3.959,1.692-8.271,3.906-12.94,6.643c-5.609,3.3-10.746,7.205-16.11,10.879c-4.585,3.138-10.768,4.602-11.874-2.695
	c-1.406-9.312,5.709-19.503,12.321-25.294c3.391-2.96,7.285-5.663,11.7-8.105c4.416-2.434,8.956-4.503,13.624-6.186
	c4.66-1.691,9.303-2.985,13.93-3.885c4.618-0.899,8.872-1.352,12.749-1.352c5.779,0,11.314,0.717,16.596,2.14
	c5.278,1.422,9.925,3.71,13.926,6.861c4.005,3.159,7.185,7.247,9.532,12.272c2.359,5.029,3.536,11.144,3.536,18.35
	c0,3.375-0.437,7.504-1.298,12.379c-0.87,4.884-2.048,10.224-3.536,16.041c-1.489,5.817-3.243,12.011-5.257,18.574
	c-1.791,5.797-4.457,13.885-6.596,20.258l27.363-2.396c4.003-11.886,9.166-27.55,13.812-39.813
	c5.073-13.392,10.464-26.542,16.151-39.453c1.907-4.279,4.403-7.687,7.496-10.245c3.102-2.549,6.75-3.827,10.962-3.827
	c1.726,0,3.407,0.225,5.008,0.68c1.617,0.447,3.035,1.145,4.271,2.082c11.426,8.648-0.572,27.479-4.453,37.031
	c-2.146,5.291-4.312,10.729-6.501,16.327c-2.188,5.589-4.378,11.31-6.558,17.16c-2.19,5.858-4.271,11.67-6.253,17.45l-6.193,19.022
	c-2.887,9.229-5.199,17.839-6.933,25.839c-1.667,7.67-3.988,19.195-3.706,27.031c0.207,5.921,0.671,12.878,4.727,17.588
	c7.776,9.029,22.761-0.605,30.878-5.705c3.716-2.33,7.861-5.323,12.446-9.005c2.064-1.658,4.254-3.483,6.525-5.433
	C399.764,228.824,409.979,241.162,401.174,247.837z"/>
</svg>
